# xmcd CD database file
#
# Track frame offsets:
#	182
#	18080
#	40390
#	54262
#	72995
#	78747
#	100740
#	114320
#	125567
#	153052
#	161585
#	176415
#	185965
#	197765
#	209797
#	226742
#	241060
#	253972
#
# Disc length: 3554 seconds
#
# Revision: 0
# Processed by: cddbd v1.4PL0 Copyright (c) Steve Scherf et al.
# Submitted via: CDex 1.50
#
DISCID=f30de012
DTITLE=Charlie Parker - Autumn In New York
DYEAR=1900
DGENRE=Jazz
TTITLE0=Rocker
TTITLE1=Moose The Mooche
TTITLE2=Just Friends
TTITLE3=My Little Suede Shoes
TTITLE4=I'll Remember April
TTITLE5=Sly Mongoose
TTITLE6=Laura
TTITLE7=Star Eyes
TTITLE8=This Time The Dream's On Me
TTITLE9=Easy To Love
TTITLE10=Cool Blues
TTITLE11=What Is This Thing Called Love?
TTITLE12=I Didn't Know What Time It Was
TTITLE13=Repetition
TTITLE14=Lester Leaps In
TTITLE15=East Of The Sun
TTITLE16=April in Paris
TTITLE17=Out Of Nowhere
EXTD=
EXTT0=
EXTT1=
EXTT2=
EXTT3=
EXTT4=
EXTT5=
EXTT6=
EXTT7=
EXTT8=
EXTT9=
EXTT10=
EXTT11=
EXTT12=
EXTT13=
EXTT14=
EXTT15=
EXTT16=
EXTT17=
PLAYORDER=
